<svg version="1.1" xmlns="http://www.w3.org/2000/svg" style="display: block;" viewBox="0 0 2048 535" width="1920" height="502" preserveAspectRatio="none">
<path transform="translate(0,0)" fill="rgb(0,0,0)" d="M 967.209 122.022 L 1000.99 122.023 L 1001.08 208.337 C 1001.09 222.841 1001.82 246.359 999.781 260.028 C 998.357 269.89 995.244 279.433 990.577 288.238 C 971.321 323.974 926.694 331.36 892.796 313.059 C 879.129 303.802 868.457 291.456 863.54 275.599 C 842.571 207.974 902.46 152.774 967.132 185.031 L 967.209 122.022 z M 936.967 291.04 C 982.192 278.908 976.577 203.033 923.676 207.174 C 878.416 218.411 882.73 295.762 936.967 291.04 z"/>
<path transform="translate(0,0)" fill="rgb(0,0,0)" d="M 764.738 176.347 C 767.449 176.118 770.167 175.994 772.887 175.975 C 791.184 175.987 809.089 180.906 822.066 194.454 C 845.253 218.663 844.268 244.687 844.238 275.24 L 844.132 319.853 L 810.434 319.838 L 810.357 305.81 C 804.42 311.542 800.305 314.22 793.307 318.192 C 789.2 319.973 784.99 321.619 780.512 322.117 C 688.03 332.407 671.678 188.814 764.738 176.347 z M 780.094 291.053 C 826.126 278.579 818.913 202.22 766.634 207.199 C 721.69 218.597 726.055 295.749 780.094 291.053 z"/>
<path transform="translate(0,0)" fill="rgb(0,0,0)" d="M 507.344 178.34 C 511.612 178.014 515.896 177.94 520.172 178.117 C 539.935 178.888 554.912 187.564 568.014 201.764 C 568.484 201.283 568.957 200.805 569.432 200.329 C 583.328 186.256 602.261 178.304 622.037 178.233 C 638.82 178.244 656.802 183.991 668.773 196.084 C 689.72 217.245 686.872 244.96 686.827 272.261 L 686.698 319.861 L 652.887 319.853 C 652.593 295.169 653.234 270.421 652.921 245.716 C 652.663 225.281 641.991 206.567 619.542 206.467 C 610.502 206.371 601.807 209.93 595.426 216.335 C 585.252 226.592 584.906 237.059 584.954 250.225 L 584.917 319.846 L 551.071 319.798 C 550.645 291.628 552.824 261.567 549.92 233.976 C 547.196 208.103 511.589 197.583 493.958 215.783 C 482.443 227.67 482.911 242.43 483.005 257.487 C 483.136 278.373 483.144 299.068 483.15 319.852 L 449.318 319.838 C 449.273 301.386 447.978 242.633 450.999 227.912 C 452.702 219.275 456.191 211.09 461.243 203.881 C 472.962 187.294 488.411 181.562 507.344 178.34 z"/>
<path transform="translate(0,0)" fill="rgb(0,0,0)" d="M 1076.25 178.309 C 1081.14 177.938 1086.06 177.919 1090.95 178.25 C 1109.31 179.59 1124.6 188.162 1136.51 201.892 C 1137.11 201.239 1137.73 200.595 1138.36 199.961 C 1152.13 186.183 1170.77 178.38 1190.25 178.239 C 1231.97 178.087 1255.86 206.92 1255.22 247.11 C 1254.84 271.102 1255.17 295.803 1255.09 319.861 L 1221.26 319.858 C 1220.96 295.159 1221.6 270.381 1221.3 245.66 C 1221.05 225.227 1210.95 206.845 1188.44 206.523 C 1179.42 206.331 1170.7 209.771 1164.25 216.071 C 1153.97 226.082 1153.55 236.683 1153.44 249.75 L 1153.34 319.85 L 1119.71 319.822 C 1118.71 291.63 1121.73 261.91 1118.46 234.129 C 1115.36 207.768 1080.43 197.612 1062.39 215.918 C 1051 227.476 1051.6 242.186 1051.7 257.003 C 1051.83 277.999 1051.83 298.906 1051.85 319.853 L 1017.96 319.839 L 1017.85 269.159 C 1017.81 256.816 1017.11 239.475 1019.56 227.678 C 1021.34 218.894 1024.96 210.587 1030.18 203.303 C 1041.87 187.14 1057.52 181.326 1076.25 178.309 z"/>
<path transform="translate(0,0)" fill="rgb(0,0,0)" d="M 254.79 178.331 C 279.583 175.992 298.59 183.616 315.213 201.828 C 315.821 201.193 316.435 200.563 317.054 199.94 C 330.864 186.147 349.548 178.346 369.066 178.225 C 449.027 178.019 434.057 265.633 433.881 319.853 L 400.011 319.848 C 399.772 294.976 400.342 270.079 400.062 245.197 C 399.834 224.92 388.719 206.431 366.546 206.463 C 357.521 206.424 348.859 210.019 342.514 216.438 C 332.672 226.388 332.029 237.027 332.076 249.888 L 332.04 319.845 L 298.235 319.828 C 297.586 292.966 300.331 260.115 297.14 234.14 C 292.474 196.158 231.374 197.176 230.588 241.291 C 230.124 267.369 230.466 293.84 230.389 319.857 L 196.638 319.835 L 196.529 267.854 C 196.498 256.241 195.935 239.208 198.099 228.321 C 199.815 219.396 203.426 210.943 208.69 203.534 C 220.451 187.165 235.997 181.359 254.79 178.331 z"/>
<path transform="translate(0,0)" fill="rgb(0,0,0)" d="M 1332.14 177.154 C 1371.97 171.79 1408.59 199.752 1413.92 239.585 C 1419.24 279.419 1391.24 316.018 1351.41 321.302 C 1311.62 326.579 1275.09 298.629 1269.77 258.852 C 1264.45 219.075 1292.37 182.51 1332.14 177.154 z M 1349.27 290.95 C 1394.85 277.937 1387.07 201.359 1334.39 207.299 C 1324.58 210.149 1314.55 216.192 1310.45 225.682 C 1295.85 259.481 1310.17 293.764 1349.27 290.95 z"/>
<path transform="translate(0,0)" fill="rgb(0,0,0)" d="M 1615.7 177.185 C 1655.69 171.707 1692.49 199.843 1697.68 239.867 C 1702.88 279.892 1674.48 316.488 1634.42 321.397 C 1594.76 326.257 1558.61 298.205 1553.47 258.582 C 1548.33 218.958 1576.12 182.609 1615.7 177.185 z M 1633.34 290.911 C 1678.32 277.395 1670.85 201.863 1618.46 207.261 C 1573.24 219.684 1579.19 297.01 1633.34 290.911 z"/>
<path transform="translate(0,0)" fill="rgb(0,0,0)" d="M 1777.51 175.411 C 1778.46 175.359 1779.41 175.332 1780.36 175.331 C 1798.16 175.309 1816.58 182.081 1829.19 194.823 C 1836.84 202.58 1842.34 212.185 1845.17 222.702 C 1849.7 239.377 1847.95 299.016 1847.88 319.843 L 1814.04 319.826 C 1813.71 301.785 1814.4 283.646 1814.2 265.608 C 1813.79 250.877 1816.37 234.806 1807.96 221.695 C 1801.99 212.376 1795.2 209.13 1784.86 206.756 C 1784.2 206.746 1783.55 206.739 1782.89 206.736 C 1750.39 206.601 1745.22 230.897 1745.93 257.567 C 1746.47 278.041 1746.1 299.316 1746.1 319.851 L 1712.24 319.851 C 1712.1 299.58 1710.73 239.852 1714.69 223.734 C 1716.99 214.221 1721.5 205.382 1727.85 197.935 C 1741.31 182.171 1757.85 176.979 1777.51 175.411 z"/>
<path transform="translate(0,0)" fill="rgb(0,0,0)" d="M 1441.32 150.185 L 1463.79 150.219 L 1463.82 178.262 L 1483.53 178.509 C 1483.77 185.823 1483.62 193.812 1483.63 201.184 C 1477.02 201.19 1470.42 201.265 1463.81 201.41 C 1464 221.282 1463.16 241.305 1463.55 261.163 C 1463.92 280.28 1469.61 288.748 1488.71 288.449 C 1488.76 294.597 1489.36 314.265 1488.15 319.155 L 1486.18 319.95 C 1429.69 319.295 1429.73 284.469 1429.84 240.555 L 1429.89 201.263 L 1415.87 201.176 L 1415.89 178.481 L 1429.95 178.429 C 1433.65 168.98 1437.44 159.565 1441.32 150.185 z"/>
<path transform="translate(0,0)" fill="rgb(0,0,0)" d="M 1504.37 178.482 C 1515.35 178.283 1527.09 178.499 1538.12 178.52 L 1538.12 319.86 L 1504.31 319.846 L 1504.37 178.482 z"/>
<path transform="translate(0,0)" fill="rgb(0,0,0)" d="M 1384.43 363.238 C 1418.55 359.872 1430.29 391.531 1414.52 418.185 C 1418.21 419.736 1420.86 421.073 1422.8 424.573 C 1422.18 432.105 1411.34 429.723 1405.21 429.642 C 1395.73 429.874 1386.43 430.227 1377.53 425.818 C 1360.63 417.533 1356.57 395.119 1364.67 379.28 C 1369.35 370.121 1374.97 366.351 1384.43 363.238 z M 1394.38 419.257 C 1418.51 410.242 1414.54 373.346 1389.42 373.01 C 1364.4 379.449 1365.95 418.699 1394.38 419.257 z"/>
<path transform="translate(0,0)" fill="rgb(0,0,0)" d="M 1680.94 363.811 C 1692.99 363.593 1712.6 361.875 1721.95 369.383 C 1737.84 382.148 1736.55 405.754 1725.32 420.827 C 1712.19 432.246 1697.68 429.857 1680.96 429.504 L 1680.94 363.811 z M 1692.04 418.985 C 1700.98 419.191 1709.54 420.638 1716.27 414.289 C 1716.64 413.938 1717 413.577 1717.35 413.206 C 1724.49 401.307 1726.49 385.769 1713.13 377.354 C 1706.27 373.028 1699.78 373.96 1692.04 374.226 L 1692.04 418.985 z"/>
<path transform="translate(0,0)" fill="rgb(0,0,0)" d="M 1737.38 363.835 C 1754.09 363.57 1787.96 358.699 1783.4 386.645 C 1782.37 392.971 1776.43 397.202 1771.42 400.435 C 1776.01 409.845 1780.48 419.903 1784.89 429.444 C 1780.89 429.583 1776.37 429.473 1772.31 429.466 L 1760.61 404.131 L 1748.65 408.846 L 1748.58 429.551 L 1737.35 429.504 L 1737.38 363.835 z M 1748.75 396.209 C 1754.23 394.43 1761.81 392.177 1767 390.099 C 1771.44 386.323 1774.72 383.471 1771.38 377.813 C 1764.91 373.086 1756.4 373.943 1748.69 374.25 L 1748.75 396.209 z"/>
<path transform="translate(0,0)" fill="rgb(0,0,0)" d="M 1425.98 363.814 C 1443.96 363.467 1476.62 358.841 1471.75 387.219 C 1470.72 393.247 1464.75 397.365 1460.02 400.339 C 1464.52 410.008 1468.95 419.702 1473.34 429.421 C 1469.43 429.591 1464.81 429.483 1460.84 429.492 C 1457.16 421.028 1453.01 412.516 1449.05 404.162 L 1437.07 408.828 L 1437.05 429.522 L 1426 429.471 L 1425.98 363.814 z M 1437.09 396.344 C 1442.59 394.525 1450.69 392.082 1455.83 389.951 C 1460.32 385.912 1463.51 382.945 1459.41 377.337 C 1451.55 373.004 1446.02 373.972 1437.09 374.226 L 1437.09 396.344 z"/>
<path transform="translate(0,0)" fill="rgb(0,0,0)" d="M 1636.62 363.797 L 1655.28 363.806 C 1662.39 383.79 1669.82 409.041 1676.01 429.442 C 1662.75 430.318 1660.34 427.533 1648.5 420.841 L 1632.99 412.243 C 1631.29 417.991 1629.35 423.924 1627.55 429.665 L 1615.87 429.47 C 1621.97 408.328 1629.73 384.743 1636.62 363.797 z M 1636.59 401.153 L 1654.51 411.146 L 1658.03 412.858 L 1658.81 412.447 C 1657.28 407.32 1647.57 374.469 1645.68 372.813 L 1636.59 401.153 z"/>
<path transform="translate(0,0)" fill="rgb(0,0,0)" d="M 1497.77 363.779 L 1516.66 363.816 C 1523.7 383.351 1531.22 409.417 1537.35 429.43 C 1523.92 430.381 1520.99 427.266 1509.12 420.319 L 1494.46 412.269 L 1488.91 429.55 L 1477.19 429.484 C 1482.46 409.826 1491.49 383.719 1497.77 363.779 z M 1497.98 401.325 L 1513.47 409.76 L 1519.07 412.747 L 1520 412.456 C 1518.7 407.508 1509.07 375.888 1507.17 372.529 C 1503.98 382.086 1500.91 391.686 1497.98 401.325 z"/>
<path transform="translate(0,0)" fill="rgb(0,0,0)" d="M 1809.28 363.786 L 1828.18 363.815 C 1835.18 385.659 1842.08 407.538 1848.86 429.452 C 1835.69 430.358 1833.18 427.626 1821.6 420.918 L 1805.84 412.322 L 1800.32 429.607 L 1788.65 429.495 C 1794.95 407.991 1802.52 385.263 1809.28 363.786 z M 1827.57 411.306 L 1831.03 412.854 L 1831.58 412.203 C 1830.17 407.626 1820.39 374.504 1818.5 372.759 L 1809.35 401.149 L 1827.57 411.306 z"/>
<path transform="translate(0,0)" fill="rgb(0,0,0)" d="M 1221.11 363.819 L 1232.2 363.837 L 1232.26 384.341 C 1240.76 380.959 1250 380.53 1257.89 385.738 C 1263.03 389.113 1266.6 394.405 1267.8 400.431 C 1269.6 409.463 1266.96 415.946 1262.08 423.217 C 1252.68 431.807 1237.33 433.504 1228.59 424.455 C 1217.48 412.953 1220.95 379.42 1221.11 363.819 z M 1248.16 420.078 C 1262.84 410.953 1259.34 391.251 1240.8 392.147 C 1226.65 401.904 1230.39 420.722 1248.16 420.078 z"/>
<path transform="translate(0,0)" fill="rgb(0,0,0)" d="M 1582.32 363.306 C 1595.28 361.761 1614.17 367.567 1617.92 381.057 C 1617.41 384.385 1617.93 383.193 1615.59 385.836 C 1608.75 386.931 1602.21 377.084 1594.58 373.657 C 1586.47 370.009 1573.52 376.861 1577.3 385.367 C 1584.69 392.131 1595.85 391.21 1604.88 394.897 C 1626.73 403.821 1618.64 421.729 1600.44 428.876 C 1581.9 433.698 1569.89 425.114 1564.07 407.967 C 1579.73 407.373 1574.5 411.959 1586.22 418.371 C 1592.02 421.549 1609.22 418.862 1604.88 407.586 C 1595.57 398.325 1557.1 404.64 1565.82 376.53 C 1567.89 369.876 1576.34 365.819 1582.32 363.306 z"/>
<path transform="translate(0,0)" fill="rgb(0,0,0)" d="M 1273.42 382.261 L 1284.57 382.36 C 1284.82 389.895 1282.51 412.523 1288.38 416.07 C 1312.29 430.528 1307.26 390.561 1307.13 382.307 C 1310.51 382.105 1313.66 381.673 1316.87 382.705 C 1319.21 385.981 1318.43 386.265 1318.58 391.059 L 1318.64 397.059 C 1318.69 406.258 1319.17 416.427 1312.17 423.27 C 1303.29 431.826 1288.01 431.397 1279.29 422.692 C 1271.03 414.434 1273.54 401.373 1273.28 390.815 C 1273.21 387.939 1273.37 385.108 1273.42 382.261 z"/>
<path transform="translate(0,0)" fill="rgb(0,0,0)" d="M 1519.74 132.306 C 1529.79 131.454 1538.61 138.958 1539.38 149.016 C 1540.15 159.074 1532.58 167.833 1522.52 168.522 C 1512.57 169.203 1503.93 161.734 1503.17 151.789 C 1502.41 141.845 1509.81 133.147 1519.74 132.306 z"/>
<path transform="translate(0,0)" fill="rgb(0,0,0)" d="M 1345.99 363.776 L 1357.06 363.824 L 1357.02 429.57 L 1345.96 429.492 L 1345.99 363.776 z"/>
<path transform="translate(0,0)" fill="rgb(0,0,0)" d="M 1273.38 431.319 C 1281.88 430.957 1282.98 430.267 1286.72 438.134 C 1289.02 442.964 1295.91 444.327 1300.94 442.861 C 1306.52 439.564 1303.77 432.548 1312.37 429.701 C 1319.45 431.295 1317.9 435.916 1316.81 441.055 C 1312.81 448.319 1306.46 453.204 1298.05 454.067 C 1292.16 454.691 1286.27 452.961 1281.65 449.254 C 1275.23 444.008 1274.12 439.055 1273.38 431.319 z"/>
</svg>